<svg width="20" height="20" viewBox="0 0 20 20" fill="none" xmlns="http://www.w3.org/2000/svg">
<circle cx="10" cy="10" r="9" stroke="#B01515" stroke-width="2"/>
<path d="M10.8125 4.09091L10.706 11.9318H9.47017L9.36364 4.09091H10.8125ZM10.0881 15.0852C9.82528 15.0852 9.59979 14.9911 9.41158 14.8029C9.22337 14.6147 9.12926 14.3892 9.12926 14.1264C9.12926 13.8636 9.22337 13.6381 9.41158 13.4499C9.59979 13.2617 9.82528 13.1676 10.0881 13.1676C10.3509 13.1676 10.5763 13.2617 10.7646 13.4499C10.9528 13.6381 11.0469 13.8636 11.0469 14.1264C11.0469 14.3004 11.0025 14.4602 10.9137 14.6058C10.8285 14.7514 10.7131 14.8686 10.5675 14.9574C10.4254 15.0426 10.2656 15.0852 10.0881 15.0852Z" fill="#B01515"/>
</svg>
