<svg width="104" height="104" viewBox="0 0 104 104" fill="none" xmlns="http://www.w3.org/2000/svg">
<circle cx="52" cy="52" r="49.5" stroke="#B01515" stroke-width="5"/>
<path d="M55 30.4545L54.5455 63.9091H49.2727L48.8182 30.4545H55ZM51.9091 77.3636C50.7879 77.3636 49.8258 76.9621 49.0227 76.1591C48.2197 75.3561 47.8182 74.3939 47.8182 73.2727C47.8182 72.1515 48.2197 71.1894 49.0227 70.3864C49.8258 69.5833 50.7879 69.1818 51.9091 69.1818C53.0303 69.1818 53.9924 69.5833 54.7955 70.3864C55.5985 71.1894 56 72.1515 56 73.2727C56 74.0152 55.8106 74.697 55.4318 75.3182C55.0682 75.9394 54.5758 76.4394 53.9545 76.8182C53.3485 77.1818 52.6667 77.3636 51.9091 77.3636Z" fill="#B01515"/>
</svg>
